# xmcd
#
# Track frame offsets:
#	150
#	17923
#	30551
#	49001
#	74661
#	96406
#	116617
#
# Disc length: 1987 seconds
#
# Revision: 1
# Processed by: cddbd v1.5.2PL0 Copyright (c) Steve Scherf et al.
# Submitted via: audiograbber 1.83.01
#
DISCID=5e07c107
DTITLE=Invoid - Invidia
DYEAR=2006
DGENRE=Death Metal
TTITLE0=Invidia
TTITLE1=Nonexistence
TTITLE2=Voracious Defacement
TTITLE3=In the Church of the Damned
TTITLE4=Decapitation
TTITLE5=Inner World of Devastation
TTITLE6=Atonement for those defiled by the dead
EXTD=
EXTT0=
EXTT1=
EXTT2=
EXTT3=
EXTT4=
EXTT5=
EXTT6=
PLAYORDER=
